<svg width="1120" height="760" viewBox="0 0 1120 760" fill="none" xmlns="http://www.w3.org/2000/svg">
  <rect width="1120" height="760" rx="26" fill="#F4F8F9"/>
  <rect x="34" y="28" width="1052" height="704" rx="22" fill="#FFFFFF" stroke="#DDE7EB"/>

  <text x="70" y="78" fill="#657582" font-family="Inter, PingFang SC, Arial, sans-serif" font-size="20" font-weight="760" letter-spacing="2">GAME NETWORK LAB</text>
  <text x="70" y="120" fill="#18232C" font-family="Inter, PingFang SC, Arial, sans-serif" font-size="32" font-weight="860">游戏性能与弱网控制台</text>

  <rect x="880" y="62" width="150" height="54" rx="27" fill="#EAF8F1" stroke="#BFE8D2" stroke-width="2"/>
  <circle cx="912" cy="89" r="8" fill="#15A36F"/>
  <text x="932" y="97" fill="#087A55" font-family="Inter, PingFang SC, Arial, sans-serif" font-size="22" font-weight="850">已生效</text>

  <rect x="70" y="154" width="330" height="520" rx="16" fill="#F7FAFB" stroke="#D9E5EA" stroke-width="2"/>
  <text x="102" y="202" fill="#657582" font-family="Inter, PingFang SC, Arial, sans-serif" font-size="17" font-weight="800">DEVICE</text>
  <text x="102" y="242" fill="#17222B" font-family="Inter, PingFang SC, Arial, sans-serif" font-size="30" font-weight="880">测试设备</text>

  <text x="102" y="300" fill="#5B6C78" font-family="Inter, PingFang SC, Arial, sans-serif" font-size="18" font-weight="800">模式</text>
  <rect x="102" y="316" width="248" height="58" rx="10" fill="#FFFFFF" stroke="#D9E5EA" stroke-width="2"/>
  <text x="124" y="353" fill="#17222B" font-family="Inter, PingFang SC, Arial, sans-serif" font-size="20" font-weight="820">Android VPN Agent</text>

  <text x="102" y="416" fill="#5B6C78" font-family="Inter, PingFang SC, Arial, sans-serif" font-size="18" font-weight="800">目标游戏</text>
  <rect x="102" y="432" width="248" height="58" rx="10" fill="#FFFFFF" stroke="#D9E5EA" stroke-width="2"/>
  <text x="124" y="469" fill="#17222B" font-family="Inter, PingFang SC, Arial, sans-serif" font-size="20" font-weight="820">com.ffm.global</text>

  <rect x="102" y="532" width="248" height="58" rx="12" fill="#0B8D98"/>
  <text x="162" y="568" fill="#FFFFFF" font-family="Inter, PingFang SC, Arial, sans-serif" font-size="22" font-weight="880">应用预设</text>
  <rect x="102" y="604" width="248" height="46" rx="10" fill="#FFFFFF" stroke="#D9E5EA" stroke-width="2"/>
  <text x="168" y="634" fill="#17222B" font-family="Inter, PingFang SC, Arial, sans-serif" font-size="18" font-weight="820">清除弱网</text>

  <rect x="430" y="154" width="600" height="240" rx="16" fill="#102027"/>
  <text x="466" y="204" fill="#A9C1C9" font-family="Inter, PingFang SC, Arial, sans-serif" font-size="17" font-weight="800">CURRENT NETWORK</text>
  <text x="466" y="254" fill="#FFFFFF" font-family="Inter, PingFang SC, Arial, sans-serif" font-size="36" font-weight="900">弱网 3G 已生效</text>
  <text x="466" y="292" fill="#BBD0D7" font-family="Inter, PingFang SC, Arial, sans-serif" font-size="19" font-weight="660">Android VPN Agent · com.ffm.global · 21:34:12</text>

  <rect x="466" y="322" width="118" height="42" rx="21" fill="#17343B" stroke="#2F5962"/>
  <text x="488" y="349" fill="#D7F6FF" font-family="Inter, PingFang SC, Arial, sans-serif" font-size="17" font-weight="820">RTT 400 ms</text>
  <rect x="598" y="322" width="96" height="42" rx="21" fill="#17343B" stroke="#2F5962"/>
  <text x="620" y="349" fill="#D7F6FF" font-family="Inter, PingFang SC, Arial, sans-serif" font-size="17" font-weight="820">丢包 3%</text>
  <rect x="708" y="322" width="142" height="42" rx="21" fill="#17343B" stroke="#2F5962"/>
  <text x="728" y="349" fill="#D7F6FF" font-family="Inter, PingFang SC, Arial, sans-serif" font-size="17" font-weight="820">下行 780 Kbps</text>
  <rect x="864" y="322" width="126" height="42" rx="21" fill="#17343B" stroke="#2F5962"/>
  <text x="884" y="349" fill="#D7F6FF" font-family="Inter, PingFang SC, Arial, sans-serif" font-size="17" font-weight="820">上行 330 Kbps</text>

  <rect x="430" y="422" width="600" height="112" rx="14" fill="#F7FAFB" stroke="#D9E5EA" stroke-width="2"/>
  <circle cx="470" cy="478" r="18" fill="#E7F8EF"/>
  <path d="M461 478L468 485L480 471" stroke="#15955F" stroke-width="4" stroke-linecap="round" stroke-linejoin="round"/>
  <text x="506" y="470" fill="#17222B" font-family="Inter, PingFang SC, Arial, sans-serif" font-size="22" font-weight="860">操作详情 8/8 成功</text>
  <text x="506" y="500" fill="#60727E" font-family="Inter, PingFang SC, Arial, sans-serif" font-size="17" font-weight="650">技术步骤默认收起；排查问题时再展开查看 pf、pipe、VPN 下发细节。</text>
  <rect x="884" y="458" width="102" height="40" rx="10" fill="#FFFFFF" stroke="#D9E5EA" stroke-width="2"/>
  <text x="910" y="484" fill="#17222B" font-family="Inter, PingFang SC, Arial, sans-serif" font-size="17" font-weight="820">展开</text>

  <rect x="430" y="562" width="600" height="112" rx="14" fill="#FFF8EF" stroke="#F0D3A2" stroke-width="2"/>
  <circle cx="470" cy="618" r="18" fill="#FFE9C2"/>
  <text x="464" y="625" fill="#B56B00" font-family="Inter, PingFang SC, Arial, sans-serif" font-size="22" font-weight="900">!</text>
  <text x="506" y="610" fill="#17222B" font-family="Inter, PingFang SC, Arial, sans-serif" font-size="22" font-weight="860">失败时只显示可行动原因</text>
  <text x="506" y="640" fill="#6D5A37" font-family="Inter, PingFang SC, Arial, sans-serif" font-size="17" font-weight="650">例：未生效：手机还没有同意 VPN 授权，请在手机弹窗中点允许。</text>

  <g filter="url(#toastShadow)">
    <rect x="706" y="132" width="324" height="88" rx="14" fill="#FFFFFF" stroke="#CFE4DA" stroke-width="2"/>
    <rect x="722" y="150" width="46" height="46" rx="23" fill="#EAF8F1"/>
    <path d="M734 173L742 181L756 164" stroke="#15955F" stroke-width="4" stroke-linecap="round" stroke-linejoin="round"/>
    <text x="784" y="166" fill="#17222B" font-family="Inter, PingFang SC, Arial, sans-serif" font-size="20" font-weight="880">已生效：弱网 3G</text>
    <text x="784" y="194" fill="#60727E" font-family="Inter, PingFang SC, Arial, sans-serif" font-size="15" font-weight="680">Android VPN Agent · com.ffm.global</text>
  </g>

  <defs>
    <filter id="toastShadow" x="682" y="112" width="372" height="136" filterUnits="userSpaceOnUse" color-interpolation-filters="sRGB">
      <feDropShadow dx="0" dy="12" stdDeviation="12" flood-color="#10333C" flood-opacity="0.15"/>
    </filter>
  </defs>
</svg>
