<svg xmlns="http://www.w3.org/2000/svg" width="760" height="560" viewBox="0 0 760 560">
  <defs>
    <linearGradient id="bg" x1="0" y1="0" x2="1" y2="1">
      <stop offset="0" stop-color="#f4f8fb"/>
      <stop offset="1" stop-color="#edf4f1"/>
    </linearGradient>
    <filter id="shadow" x="-20%" y="-20%" width="140%" height="140%">
      <feDropShadow dx="0" dy="16" stdDeviation="22" flood-color="#26404f" flood-opacity="0.16"/>
    </filter>
  </defs>

  <rect width="760" height="560" rx="24" fill="url(#bg)"/>

  <g filter="url(#shadow)">
    <rect x="74" y="44" width="612" height="472" rx="18" fill="#ffffff"/>
  </g>

  <g font-family="-apple-system, BlinkMacSystemFont, 'PingFang SC', 'Microsoft YaHei', Arial, sans-serif">
    <text x="106" y="88" font-size="15" font-weight="700" fill="#6a7b8b" letter-spacing="1.5">DEVICE</text>
    <text x="106" y="119" font-size="26" font-weight="760" fill="#182632">测试设备</text>
    <g transform="translate(582 72)">
      <rect width="72" height="32" rx="16" fill="#e8f8f0" stroke="#c5ead8"/>
      <circle cx="17" cy="16" r="4.8" fill="#13a466"/>
      <text x="29" y="21" font-size="14" font-weight="700" fill="#12784e">在线</text>
    </g>

    <text x="106" y="159" font-size="14" font-weight="700" fill="#273541">模式</text>
    <rect x="106" y="171" width="548" height="46" rx="10" fill="#f9fcfe" stroke="#d6e1ea"/>
    <text x="126" y="200" font-size="15" font-weight="760" fill="#24323d">Android VPN Agent</text>
    <circle cx="593" cy="194" r="12" fill="#edf4f8" stroke="#ccd9e2"/>
    <text x="589" y="199" font-size="15" font-weight="700" fill="#617384">?</text>
    <path d="M628 190 l8 8 l8 -8" fill="none" stroke="#768797" stroke-width="2.2" stroke-linecap="round" stroke-linejoin="round"/>

    <g transform="translate(106 238)">
      <rect width="548" height="142" rx="14" fill="#f6fbf8" stroke="#bfe6d0"/>
      <rect x="16" y="16" width="92" height="28" rx="14" fill="#13a466"/>
      <circle cx="31" cy="30" r="4.5" fill="#ffffff"/>
      <text x="44" y="35" font-size="14" font-weight="800" fill="#ffffff">生效中</text>

      <text x="16" y="74" font-size="22" font-weight="800" fill="#183226">EDGE 网络</text>
      <text x="130" y="74" font-size="15" font-weight="700" fill="#426455">已下发到</text>
      <rect x="205" y="52" width="154" height="30" rx="15" fill="#ffffff" stroke="#b6dec6"/>
      <text x="222" y="72" font-size="14" font-weight="800" fill="#1f4937">com.ffm.global</text>

      <text x="16" y="107" font-size="14" font-weight="650" fill="#50675d">Android VPN Agent -> Mac SOCKS -> pf/dnctl</text>
      <text x="16" y="130" font-size="14" font-weight="650" fill="#50675d">下行 240 Kbps / 上行 120 Kbps / 丢包 2% / 抖动 120ms</text>

      <g transform="translate(382 21)">
        <rect width="150" height="96" rx="12" fill="#ffffff" stroke="#cfe8d9"/>
        <text x="16" y="28" font-size="13" font-weight="700" fill="#6a8075">验证</text>
        <text x="16" y="53" font-size="14" font-weight="800" fill="#163326">tun0 有流量</text>
        <text x="16" y="77" font-size="14" font-weight="800" fill="#163326">SOCKS 成功 12</text>
      </g>
    </g>

    <g transform="translate(106 394)">
      <rect width="548" height="50" rx="12" fill="#f8fafc" stroke="#d8e3ea"/>
      <circle cx="24" cy="25" r="6" fill="#13a466"/>
      <text x="42" y="24" font-size="14" font-weight="800" fill="#21313c">最近检查正常</text>
      <text x="42" y="40" font-size="12.5" font-weight="600" fill="#6b7c87">tcpRejected 0，tcpFailed 0，更新时间 19:37:46</text>
      <text x="436" y="31" font-size="13" font-weight="800" fill="#537064">查看详情</text>
      <path d="M510 25 l6 6 l6 -6" fill="none" stroke="#6d8178" stroke-width="2" stroke-linecap="round" stroke-linejoin="round"/>
    </g>

    <g transform="translate(106 458)">
      <text x="0" y="0" font-size="13" font-weight="700" fill="#6b7c87">异常时示例：</text>
      <rect x="0" y="12" width="548" height="34" rx="10" fill="#fff7ed" stroke="#f3cf9d"/>
      <circle cx="22" cy="29" r="5" fill="#f59e0b"/>
      <text x="39" y="33" font-size="13.5" font-weight="750" fill="#7a4b10">部分生效：SOCKS 拒绝 10.5.8.132，当前允许 10.5.14.68</text>
    </g>
  </g>
</svg>
